<svg xmlns="http://www.w3.org/2000/svg" viewBox="0 0 210 210" fill="none"><g opacity=".1"><circle cx="104.501" cy="104.501" r="76.5" transform="rotate(30 104.501 104.501)" fill="#D8D8D8" fill-opacity=".01"></circle><mask id="a" style="mask-type:alpha" maskUnits="userSpaceOnUse" x="27" y="27" width="155" height="155"><circle cx="104.501" cy="104.501" r="76.5" transform="rotate(30 104.501 104.501)" fill="#fff"></circle></mask><g mask="url(/wp-content/themes/athemesv4/assets/css/#a)"><path d="m62.417-13.58.433.25.25-.432-.433-.25-.25.433Zm-81.632 141.391-.25.433.433.25.25-.433-.433-.25Zm-.866-.5-.433-.25-.25.433.433.25.25-.433Zm.25-.433.433.25-.433-.25ZM61.302-13.646l-.433-.25.433.25Zm.25-.433.25-.433-.433-.25-.25.433.433.25Zm10.987 6.92-.433-.25.433.25Zm.25-.432.433.25.25-.433-.433-.25-.25.433ZM-8.594 133.366l.433.25-.433-.25Zm-.25.433-.25.433.433.25.25-.433-.433-.25Zm-.866-.5-.433-.25-.25.433.433.25.25-.433Zm.25-.433.433.25-.433-.25ZM71.672-7.658l-.433-.25.433.25Zm.25-.433.25-.433-.433-.25-.25.433.433.25ZM83.16-1.604l.433.25.25-.433-.433-.25-.25.433Zm-.25.433.433.25-.433-.25Zm-.616-.933.25-.433-.433-.25-.25.433.433.25Zm-.25.433-.433-.25.433.25ZM.911 138.854l.433.25-.433-.25Zm-.25.433-.433-.25-.25.433.433.25.25-.433Zm.866.5-.25.433.433.25.25-.433-.433-.25Zm.25-.433-.433-.25.433.25ZM93.28 4.817l-.433-.25.433.25Zm.25-.433.433.25.25-.433-.433-.25-.25.433ZM12.148 145.34l.433.25-.433-.25Zm-.25.433-.25.433.433.25.25-.433-.433-.25Zm-.866-.5-.433-.25-.25.433.433.25.25-.433ZM92.664 3.884l.25-.433-.433-.25-.25.433.433.25Zm11.237 6.487.433.25.25-.433-.433-.25-.25.433Zm-.25.434-.433-.25.433.25Zm-.616-.933.25-.434-.433-.25-.25.434.433.25Zm-81.632 141.39-.433-.25-.25.433.433.25.25-.433Zm.866.5-.25.433.433.25.25-.433-.433-.25Zm.25-.433.433.25-.433-.25Zm91.753-134.97.433.25.25-.433-.433-.25-.25.433ZM32.64 157.75l-.25.433.433.25.25-.433-.433-.25Zm-.866-.5-.433-.25-.25.433.433.25.25-.433Zm.25-.433-.433-.25.433.25Zm81.132-140.525.433.25-.433-.25Zm.25-.433.25-.433-.433-.25-.25.433.433.25Zm11.237 6.488.433.25.25-.433-.433-.25-.25.433Zm-.25.433.433.25-.433-.25Zm-.616-.933.25-.433-.433-.25-.25.433.433.25Zm-.25.433-.433-.25.433.25ZM42.395 162.804l.433.25-.433-.25Zm-.25.433-.433-.25-.25.433.433.25.25-.433Zm.866.5-.25.433.433.25.25-.433-.433-.25Zm.25-.433-.433-.25.433.25Zm91.503-134.536-.433-.25.433.25Zm.25-.434.433.25.25-.433-.433-.25-.25.433ZM53.632 169.292l.433.25-.433-.25Zm-.25.433-.25.433.433.25.25-.433-.433-.25Zm-.866-.5-.433-.25-.25.433.433.25.25-.433Zm.25-.433.433.25-.433-.25Zm81.132-140.524-.433-.25.433.25Zm.25-.434.25-.433-.433-.25-.25.433.433.25Zm11.237 6.488.433.25.25-.433-.433-.25-.25.433Zm-.25.433-.433-.25.433.25Zm-.616-.933.25-.433-.433-.25-.25.433.433.25ZM62.887 175.213l-.433-.25-.25.433.433.25.25-.433Zm.866.5-.25.433.433.25.25-.433-.433-.25Zm.25-.433.433.25-.433-.25Zm91.503-134.537.433.25-.433-.25Zm.25-.433.433.25.25-.433-.433-.25-.25.433ZM74.124 181.7l-.25.433.433.25.25-.433-.433-.25Zm-.866-.5-.433-.25-.25.433.433.25.25-.433Zm.25-.433-.433-.25.433.25ZM154.64 40.243l.433.25-.433-.25Zm.25-.433.25-.433-.433-.25-.25.433.433.25Zm11.237 6.487.433.25.25-.433-.433-.25-.25.433Zm-.25.434-.434-.25.434.25Zm-.617-.934.25-.433-.433-.25-.25.433.433.25ZM83.629 187.188l-.433-.25-.25.433.433.25.25-.433Zm.866.5-.25.433.433.25.25-.433-.433-.25Zm.25-.433-.433-.25.433.25Zm91.502-134.537-.433-.25.433.25Zm.25-.433.433.25.25-.433-.433-.25-.25.433ZM95.116 193.243l-.433-.25.433.25Zm-.25.433-.25.433.433.25.25-.433-.433-.25Zm-.866-.5-.433-.25-.25.433.433.25.25-.433Zm81.631-141.39.25-.434-.433-.25-.25.433.433.25Zm11.237 6.487.433.25.25-.433-.433-.25-.25.433Zm-.866-.5.25-.433-.433-.25-.25.433.433.25ZM104.621 198.73l.433.25-.433-.25Zm-.25.433-.433-.25-.25.433.433.25.25-.433Zm.866.5-.25.433.433.25.25-.433-.433-.25Zm91.752-134.97.433.25-.433-.25Zm.25-.433.433.25.25-.433-.433-.25-.25.433Zm-81.382 140.958-.433-.25.433.25Zm-.25.433-.25.433.433.25.25-.433-.433-.25Zm-.866-.5-.433-.25-.25.433.433.25.25-.433Zm.25-.433.433.25-.433-.25Zm81.132-140.525-.433-.25.433.25Zm.25-.433.25-.433-.433-.25-.25.433.433.25Zm11.237 6.488.433.25.25-.433-.433-.25-.25.433Zm-.25.433-.433-.25.433.25Zm-.616-.933.25-.433-.433-.25-.25.433.433.25Zm-81.632 141.39-.433-.25-.25.433.433.25.25-.433Zm.866.5-.25.433.433.25.25-.433-.433-.25Zm.25-.433.433.25-.433-.25Zm91.753-134.97.433.25.25-.432-.433-.25-.25.433Zm-81.382 140.958.433.25-.433-.25Zm-.25.433-.25.433.433.25.25-.433-.433-.25Zm-.866-.5-.433-.25-.25.433.433.25.25-.433Zm.25-.433.433.25-.433-.25Zm81.132-140.524-.433-.25.433.25Zm.25-.433.25-.433-.433-.25-.25.433.433.25Zm11.237 6.487.433.25.25-.433-.433-.25-.25.433Zm-.866-.5.25-.433-.433-.25-.25.433.433.25Zm-81.632 141.391-.433-.25-.25.433.433.25.25-.433Zm.866.5-.25.433.433.25.25-.433-.433-.25ZM62.6-12.896l.25-.433-.866-.5-.25.433.866.5ZM-18.53 127.628 62.6-12.896l-.866-.5-81.132 140.524.866.5Zm-.25.433.25-.433-.867-.5-.25.433.866.5Zm-1.55-.317.866.5.5-.866-.866-.5-.5.866Zm.067-1.116-.25.433.866.5.25-.433-.866-.5ZM60.869-13.896l-81.132 140.524.866.5L61.735-13.396l-.866-.5Zm.25-.433-.25.433.866.5.25-.433-.866-.5Zm1.55.317-.867-.5-.5.866.866.5.5-.866ZM72.97-6.908l.25-.433-.866-.5-.25.433.866.5ZM-8.16 133.616 72.971-6.908l-.866-.5-81.132 140.524.866.5Zm-.25.433.25-.433-.866-.5-.25.433.866.5Zm-1.549-.317.866.5.5-.866-.866-.5-.5.866Zm.067-1.116-.25.433.866.5.25-.433-.866-.5ZM71.24-7.908-9.893 132.616l.866.5L72.105-7.408l-.866-.5Zm.25-.433-.25.433.866.5.25-.433-.866-.5Zm1.55.317-.867-.5-.5.866.866.5.5-.866Zm9.687 6.17-.25.433.866.5.25-.433-.866-.5Zm-.683.183.866.5.5-.866-.866-.5-.5.866Zm.433.25.25-.433-.866-.5-.25.433.866.5ZM1.344 139.104 82.476-1.421l-.866-.5L.478 138.604l.866.5Zm-.25.433.25-.433-.866-.5-.25.433.866.5Zm.683-.183-.866-.5-.5.866.866.5.5-.866Zm-.433-.25-.25.433.866.5.25-.433-.866-.5ZM82.476-1.421 1.344 139.104l.866.5L83.342-.921l-.866-.5Zm11.237 6.488.25-.433-.866-.5-.25.433.866.5ZM12.581 145.59 93.713 5.067l-.866-.5L11.715 145.09l.866.5Zm-.25.433.25-.433-.866-.5-.25.433.866.5Zm-1.549-.317.866.5.5-.866-.866-.5-.5.866Zm.067-1.116-.25.433.866.5.25-.433-.866-.5ZM91.981 4.067 10.849 144.59l.866.5L92.847 4.567l-.866-.5Zm.25-.433-.25.433.866.5.25-.433-.866-.5Zm1.55.317-.867-.5-.5.866.866.5.5-.866Zm9.687 6.17-.25.434.866.5.25-.434-.866-.5Zm-.683.184.866.5.5-.867-.866-.5-.5.867Zm.433.25.25-.434-.866-.5-.25.434.866.5ZM22.086 151.078l81.132-140.525-.866-.5L21.22 150.58l.866.5Zm-.25.433.25-.433-.866-.5-.25.433.866.5Zm.683-.183-.866-.5-.5.866.866.5.5-.866Zm-.433-.25-.25.433.866.5.25-.433-.866-.5Zm81.132-140.525L22.086 151.08l.866.5 81.132-140.525-.866-.5Zm11.237 6.488.25-.433-.866-.5-.25.433.866.5ZM33.323 157.567l81.132-140.525-.866-.5-81.132 140.525.866.5Zm-.25.433.25-.433-.866-.5-.25.433.866.5Zm-1.549-.317.866.5.5-.866-.866-.5-.5.866Zm.067-1.116-.25.433.866.5.25-.433-.866-.5Zm81.132-140.525L31.591 156.567l.866.5L113.59 16.542l-.866-.5Zm.25-.433-.25.433.866.5.25-.433-.866-.5Zm1.549.317-.866-.5-.5.866.866.5.5-.866Zm9.688 6.17-.25.434.866.5.25-.433-.866-.5Zm-.683.184.866.5.5-.866-.866-.5-.5.866Zm.433.25.25-.433-.866-.5-.25.433.866.5ZM42.828 163.054 123.96 22.53l-.866-.5-81.132 140.524.866.5Zm-.25.433.25-.433-.866-.5-.25.433.866.5Zm.683-.183-.866-.5-.5.866.866.5.5-.866Zm-.433-.25-.25.433.866.5.25-.433-.866-.5ZM123.96 22.53 42.828 163.054l.866.5L124.826 23.03l-.866-.5Zm11.237 6.487.25-.433-.866-.5-.25.433.866.5ZM54.065 169.543l81.132-140.525-.866-.5-81.132 140.525.866.5Zm-.25.433.25-.433-.866-.5-.25.433.866.5Zm-1.55-.317.867.5.5-.866-.866-.5-.5.866Zm.068-1.116-.25.433.866.5.25-.433-.866-.5Zm81.132-140.524L52.333 168.542l.866.5L134.33 28.518l-.866-.5Zm.25-.434-.25.433.866.5.25-.433-.866-.5Zm1.549.317-.866-.5-.5.866.866.5.5-.866Zm9.688 6.171-.25.433.866.5.25-.433-.866-.5Zm-.683.183.866.5.5-.866-.866-.5-.5.866Zm.433.25.25-.433-.866-.5-.25.433.866.5ZM63.57 175.03l81.132-140.525-.866-.5L62.704 174.53l.866.5Zm-.25.433.25-.433-.866-.5-.25.433.866.5Zm.683-.183-.866-.5-.5.866.866.5.5-.866Zm-.433-.25-.25.433.866.5.25-.433-.866-.5Zm81.132-140.525L63.57 175.03l.866.5 81.132-140.525-.866-.5Zm11.237 6.488.25-.433-.866-.5-.25.433.866.5ZM74.807 181.517l81.132-140.524-.866-.5-81.132 140.524.866.5Zm-.25.433.25-.433-.866-.5-.25.433.866.5Zm-1.55-.317.867.5.5-.866-.866-.5-.5.866Zm.068-1.116-.25.433.866.5.25-.433-.866-.5Zm81.132-140.524L73.075 180.517l.866.5 81.132-140.524-.866-.5Zm.25-.433-.25.433.866.5.25-.433-.866-.5Zm1.549.317-.866-.5-.5.866.866.5.5-.866Zm9.687 6.17-.25.434.867.5.25-.434-.867-.5Zm-.683.184.867.5.5-.867-.867-.5-.5.867Zm.433.25.25-.434-.866-.5-.25.434.866.5ZM84.312 187.005l81.131-140.524-.866-.5-81.131 140.524.866.5Zm-.25.433.25-.433-.866-.5-.25.433.866.5Zm.683-.183-.866-.5-.5.866.866.5.5-.866Zm-.433-.25-.25.433.866.5.25-.433-.866-.5Zm81.131-140.524L84.312 187.005l.866.5L166.31 46.981l-.867-.5Zm11.237 6.487.25-.433-.866-.5-.25.433.866.5ZM95.549 193.493 176.68 52.968l-.866-.5-81.131 140.525.866.5Zm-.25.433.25-.433-.866-.5-.25.433.866.5Zm-1.55-.317.867.5.5-.866-.866-.5-.5.866Zm.068-1.116-.25.433.866.5.25-.433-.866-.5Zm81.131-140.525L93.817 192.493l.866.5 81.131-140.525-.866-.5Zm.25-.433-.25.433.866.5.25-.433-.866-.5Zm1.549.317-.866-.5-.5.866.866.5.5-.866Zm9.688 6.17-.25.434.866.5.25-.433-.866-.5Zm-.683.184.866.5.5-.866-.866-.5-.5.866Zm.433.25.25-.433-.866-.5-.25.433.866.5ZM105.054 198.98l81.131-140.524-.866-.5-81.131 140.524.866.5Zm-.25.433.25-.433-.866-.5-.25.433.866.5Zm.683-.183-.866-.5-.5.866.866.5.5-.866Zm-.433-.25-.25.433.866.5.25-.433-.866-.5Zm81.131-140.524L105.054 198.98l.866.5 81.131-140.524-.866-.5Zm11.237 6.487.25-.433-.866-.5-.25.433.866.5ZM116.29 205.468l81.132-140.525-.866-.5-81.132 140.525.866.5Zm-.25.433.25-.433-.866-.5-.25.433.866.5Zm-1.549-.317.866.5.5-.866-.866-.5-.5.866Zm.067-1.116-.25.433.866.5.25-.433-.866-.5ZM195.69 63.943l-81.132 140.525.866.5 81.132-140.525-.866-.5Zm.25-.433-.25.433.866.5.25-.433-.866-.5Zm1.549.317-.866-.5-.5.866.866.5.5-.866Zm9.688 6.171-.25.433.866.5.25-.433-.866-.5Zm-.683.183.866.5.5-.866-.866-.5-.5.866Zm.433.25.25-.433-.866-.5-.25.433.866.5Zm-81.132 140.524 81.132-140.524-.866-.5-81.132 140.524.866.5Zm-.25.433.25-.433-.866-.5-.25.433.866.5Zm.683-.183-.866-.5-.5.866.866.5.5-.866Zm-.433-.25-.25.433.866.5.25-.433-.866-.5Zm81.132-140.524-81.132 140.524.866.5 81.132-140.524-.866-.5Zm11.237 6.488.25-.433-.866-.5-.25.433.866.5Zm-81.132 140.524 81.132-140.524-.866-.5-81.132 140.524.866.5Zm-.25.433.25-.433-.866-.5-.25.433.866.5Zm-1.549-.317.866.5.5-.866-.866-.5-.5.866Zm.067-1.116-.25.433.866.5.25-.433-.866-.5Zm81.132-140.524L135.3 216.443l.866.5 81.132-140.524-.866-.5Zm.25-.433-.25.433.866.5.25-.433-.866-.5Zm1.549.317-.866-.5-.5.866.866.5.5-.866Zm9.688 6.17-.25.433.866.5.25-.433-.866-.5Zm-.683.183.866.5.5-.866-.866-.5-.5.866Zm.433.25.25-.433-.866-.5-.25.433.866.5Zm-81.132 140.525 81.132-140.525-.866-.5-81.132 140.525.866.5Zm-.25.433.25-.433-.866-.5-.25.433.866.5Zm.683-.183-.866-.5-.5.866.866.5.5-.866Zm-.433-.25-.25.433.866.5.25-.433-.866-.5Zm81.132-140.525-81.132 140.525.866.5 81.132-140.525-.866-.5Z" fill="#335EEA"></path></g></g></svg>