<svg xmlns="http://www.w3.org/2000/svg" viewBox="0 0 122 122" fill="none"><path fill-rule="evenodd" clip-rule="evenodd" d="M10.457 5.229A5.229 5.229 0 1 1 0 5.229a5.229 5.229 0 0 1 10.457 0Zm0 18.59a5.229 5.229 0 1 1-10.457 0 5.229 5.229 0 0 1 10.457 0ZM23.82 10.457a5.229 5.229 0 1 0 0-10.457 5.229 5.229 0 0 0 0 10.457Zm5.229 13.362a5.229 5.229 0 1 1-10.458 0 5.229 5.229 0 0 1 10.458 0ZM42.41 10.457A5.229 5.229 0 1 0 42.41 0a5.229 5.229 0 0 0 0 10.457Zm5.228 13.362a5.229 5.229 0 1 1-10.457 0 5.229 5.229 0 0 1 10.457 0ZM61 10.457A5.229 5.229 0 1 0 61 0a5.229 5.229 0 0 0 0 10.457Zm5.229 13.362a5.229 5.229 0 1 1-10.458 0 5.229 5.229 0 0 1 10.458 0ZM79.59 10.457A5.229 5.229 0 1 0 79.59 0a5.229 5.229 0 0 0 0 10.457Zm5.228 13.362a5.229 5.229 0 1 1-10.457 0 5.229 5.229 0 0 1 10.457 0Zm13.362-13.362A5.229 5.229 0 1 0 98.18 0a5.229 5.229 0 0 0 0 10.457Zm5.229 13.362a5.229 5.229 0 1 1-10.457 0 5.229 5.229 0 0 1 10.457 0Zm13.361-13.362a5.229 5.229 0 1 0 0-10.457 5.229 5.229 0 0 0 0 10.457ZM122 23.82a5.229 5.229 0 1 1-10.457 0 5.229 5.229 0 0 1 10.457 0ZM5.229 47.639a5.229 5.229 0 1 0 0-10.458 5.229 5.229 0 0 0 0 10.457Zm23.819-5.23a5.229 5.229 0 1 1-10.458 0 5.229 5.229 0 0 1 10.458 0Zm13.362 5.23a5.229 5.229 0 1 0 0-10.458 5.229 5.229 0 0 0 0 10.457Zm23.819-5.23a5.229 5.229 0 1 1-10.458 0 5.229 5.229 0 0 1 10.458 0Zm13.362 5.23a5.229 5.229 0 1 0 0-10.458 5.229 5.229 0 0 0 0 10.457Zm23.819-5.23a5.229 5.229 0 1 1-10.457 0 5.229 5.229 0 0 1 10.457 0Zm13.361 5.23a5.229 5.229 0 1 0 0-10.458 5.229 5.229 0 0 0 0 10.457ZM10.457 61A5.229 5.229 0 1 1 0 61a5.229 5.229 0 0 1 10.457 0Zm13.362 5.229a5.229 5.229 0 1 0 0-10.458 5.229 5.229 0 0 0 0 10.458ZM47.639 61a5.229 5.229 0 1 1-10.458 0 5.229 5.229 0 0 1 10.457 0ZM61 66.229a5.229 5.229 0 1 0 0-10.458 5.229 5.229 0 0 0 0 10.458ZM84.82 61a5.229 5.229 0 1 1-10.458 0 5.229 5.229 0 0 1 10.457 0Zm13.36 5.229a5.229 5.229 0 1 0 .002-10.458 5.229 5.229 0 0 0-.001 10.458ZM122 61a5.229 5.229 0 1 1-10.457 0A5.229 5.229 0 0 1 122 61ZM5.229 84.82a5.229 5.229 0 1 0 0-10.458 5.229 5.229 0 0 0 0 10.457Zm23.819-5.23a5.229 5.229 0 1 1-10.458 0 5.229 5.229 0 0 1 10.458 0Zm13.362 5.23a5.229 5.229 0 1 0 0-10.458 5.229 5.229 0 0 0 0 10.457Zm23.819-5.23a5.229 5.229 0 1 1-10.458 0 5.229 5.229 0 0 1 10.458 0Zm13.362 5.23a5.229 5.229 0 1 0 0-10.458 5.229 5.229 0 0 0 0 10.457Zm23.819-5.23a5.229 5.229 0 1 1-10.458 0 5.229 5.229 0 0 1 10.458 0Zm13.361 5.23a5.229 5.229 0 1 0 0-10.458 5.229 5.229 0 0 0 0 10.457ZM10.457 98.18A5.229 5.229 0 1 1 0 98.183a5.229 5.229 0 0 1 10.457-.001Zm13.362 5.23a5.229 5.229 0 1 0 0-10.457 5.229 5.229 0 0 0 0 10.457Zm23.82-5.23a5.229 5.229 0 1 1-10.458.002 5.229 5.229 0 0 1 10.457-.001ZM61 103.41a5.229 5.229 0 1 0 0-10.457 5.229 5.229 0 0 0 0 10.457Zm23.82-5.23a5.229 5.229 0 1 1-10.459.001 5.229 5.229 0 0 1 10.458 0Zm13.36 5.23a5.229 5.229 0 1 0 .001-10.458 5.229 5.229 0 0 0 0 10.458ZM122 98.18a5.229 5.229 0 1 1-10.458.001 5.229 5.229 0 0 1 10.458 0ZM5.229 122a5.229 5.229 0 1 0 0-10.457 5.229 5.229 0 0 0 0 10.457Zm23.819-5.229a5.229 5.229 0 1 1-10.458 0 5.229 5.229 0 0 1 10.458 0ZM42.41 122a5.229 5.229 0 1 0 0-10.457 5.229 5.229 0 0 0 0 10.457Zm23.819-5.229a5.229 5.229 0 1 1-10.458 0 5.229 5.229 0 0 1 10.458 0ZM79.59 122a5.229 5.229 0 1 0 0-10.458 5.229 5.229 0 0 0 0 10.458Zm23.819-5.229a5.229 5.229 0 1 1-10.458 0 5.229 5.229 0 0 1 10.458 0ZM116.771 122a5.229 5.229 0 1 0 0-10.458 5.229 5.229 0 0 0 0 10.458Z" fill="#335EEA" opacity=".1"></path></svg>