<?xml version="1.0" encoding="utf-8"?>
<!-- Generator: Adobe Illustrator 27.5.0, SVG Export Plug-In . SVG Version: 6.00 Build 0)  -->
<svg version="1.1" id="Outline" xmlns="http://www.w3.org/2000/svg" xmlns:xlink="http://www.w3.org/1999/xlink" x="0px" y="0px"
	 viewBox="0 0 64 64" style="enable-background:new 0 0 64 64;" xml:space="preserve">
<style type="text/css">
	.st0{fill:#A6BC00;}
</style>
<g id="XMLID_3392_">
	<path id="XMLID_4094_" class="st0" d="M61,34c-0.6,0-1,0.4-1,1v10c0,1.7-1.3,3-3,3H8c-2.2,0-4-1.8-4-4V13c0-1.7,1.3-3,3-3h17
		c0.6,0,1-0.4,1-1s-0.4-1-1-1H7c-2.8,0-5,2.2-5,5v31c0,3.3,2.7,6,6,6h12.5c-1,2.3-2.9,4.1-5.3,5l-2.5,1H11c-1.7,0-3,1.3-3,3v2
		c0,0.6,0.4,1,1,1h16c0.6,0,1-0.4,1-1s-0.4-1-1-1H10v-1c0-0.6,0.4-1,1-1h42c0.6,0,1,0.4,1,1v1H29c-0.6,0-1,0.4-1,1s0.4,1,1,1h26
		c0.6,0,1-0.4,1-1v-2c0-1.7-1.3-3-3-3h-1.8l-2.5-1c-2.4-0.9-4.2-2.7-5.3-5H57c2.8,0,5-2.2,5-5V35C62,34.4,61.6,34,61,34z M46.2,56
		H17.8c2.3-1.4,4-3.5,5-6h18.6C42.2,52.5,44,54.6,46.2,56z"/>
	<path id="XMLID_4093_" class="st0" d="M57,8H38c-0.6,0-1,0.4-1,1s0.4,1,1,1h19c1.7,0,3,1.3,3,3v18c0,0.6,0.4,1,1,1s1-0.4,1-1V13
		C62,10.2,59.8,8,57,8z"/>
	<path id="XMLID_4087_" class="st0" d="M20.1,13.6L17.7,20c-0.3,0.7-0.2,1.5,0.1,2.1c0.3,0.7,0.9,1.2,1.6,1.4
		c1.2,0.4,2.5-0.1,3.2-1.2l2-3.3H26c0,0.6,0.4,1,1,1s1-0.4,1-1v-1c0-0.6-0.4-1-1-1h-3c-0.4,0-0.7,0.2-0.9,0.5l-2.3,3.8
		c-0.2,0.3-0.5,0.4-0.8,0.3c-0.2-0.1-0.3-0.2-0.4-0.4c-0.1-0.2-0.1-0.4,0-0.6l2.2-5.8l5.3-0.9h7.6l4.7,3.8c0.2,0.2,0.5,0.3,0.8,0.2
		l4.8-0.7c0.3,0,0.6,0,0.8,0.2s0.3,0.4,0.3,0.7c0,0.5-0.4,0.9-0.8,1L39.2,20l-3.7-2.2c-0.3-0.2-0.7-0.2-1,0S34,18.3,34,18.7V22h-7
		c-0.5,0-0.9,0.4-1,0.8l-0.9,5.3L20.7,29H17c-0.6,0-1,0.4-1,1v7c0,0.6,0.4,1,1,1c2.1,0,3.9-1.3,4.6-3.2l8.5-0.8
		c0.3,0,0.6-0.2,0.8-0.5l2.6-5.1l2.7,1.3l0.9,5.5c0.1,0.5,0.5,0.8,1,0.8h3c1.3,0,2.4,0.8,2.8,2H38c-0.6,0-1,0.4-1,1s0.4,1,1,1h7
		c0.6,0,1-0.4,1-1c0-2.1-1.3-3.9-3.2-4.6L42,26.9c0-0.3-0.2-0.6-0.4-0.7L36,22.5v-2.1l2.5,1.5c0.2,0.1,0.4,0.2,0.6,0.1l6.3-0.8
		c1.5-0.2,2.6-1.5,2.6-2.9c0-0.9-0.4-1.7-1-2.2c-0.6-0.6-1.5-0.8-2.4-0.7L40.3,16l-4.7-3.7C35.4,12.1,35.2,12,35,12h-0.6
		c0.3-0.6,0.6-1.3,0.6-2V3c0-0.6-0.4-1-1-1h-2c-2.8,0-5,2.2-5,5v3c0,0.7,0.2,1.4,0.6,2H27c-0.1,0-0.1,0-0.2,0l-6,1
		C20.5,13.1,20.2,13.3,20.1,13.6z M20,33c0,1.3-0.8,2.4-2,2.8V31h2V33z M40.8,34h-1.9L38,28.8c-0.1-0.3-0.3-0.6-0.5-0.7l-4-2
		c-0.5-0.2-1.1,0-1.3,0.4L29.4,32L22,32.8v-2l4.2-0.8c0.4-0.1,0.7-0.4,0.8-0.8l0.9-5.2h6.9l5.4,3.6L40.8,34z M32,4h1v2h-3.8
		C29.6,4.8,30.7,4,32,4z M29,10V8h4v2c0,1.1-0.9,2-2,2S29,11.1,29,10z"/>
	<path id="XMLID_4084_" class="st0" d="M22,40c-1.3,0-2.4,0.8-2.8,2H13c-0.6,0-1,0.4-1,1s0.4,1,1,1h6.2c0.4,1.2,1.5,2,2.8,2
		s2.4-0.8,2.8-2H53c0.6,0,1-0.4,1-1s-0.4-1-1-1H24.8C24.4,40.8,23.3,40,22,40z M22,44c-0.6,0-1-0.4-1-1s0.4-1,1-1s1,0.4,1,1
		S22.6,44,22,44z"/>
	<path id="XMLID_4078_" class="st0" d="M57,39c0.6,0,1-0.4,1-1V22c0-0.6-0.4-1-1-1h-4c-0.6,0-1,0.4-1,1v16c0,0.6,0.4,1,1,1H57z
		 M54,31h2v2h-2V31z M56,29h-2v-2h2V29z M56,37h-2v-2h2V37z M54,23h2v2h-2V23z"/>
	<path id="XMLID_4077_" class="st0" d="M7,21h4c0.6,0,1-0.4,1-1s-0.4-1-1-1H7c-0.6,0-1,0.4-1,1S6.4,21,7,21z"/>
	<path id="XMLID_4076_" class="st0" d="M7,25h4c0.6,0,1-0.4,1-1s-0.4-1-1-1H7c-0.6,0-1,0.4-1,1S6.4,25,7,25z"/>
	<path id="XMLID_4075_" class="st0" d="M12,28c0-0.6-0.4-1-1-1H7c-0.6,0-1,0.4-1,1s0.4,1,1,1h4C11.6,29,12,28.6,12,28z"/>
	<path id="XMLID_3412_" class="st0" d="M11,32c0-0.6-0.4-1-1-1H7c-0.6,0-1,0.4-1,1c0,0.6,0.4,1,1,1h3C10.6,33,11,32.6,11,32z"/>
	<path id="XMLID_3405_" class="st0" d="M7,35c-0.6,0-1,0.4-1,1s0.4,1,1,1h2c0.6,0,1-0.4,1-1s-0.4-1-1-1H7z"/>
</g>
</svg>
