<?xml version="1.0" encoding="UTF-8"?><svg id="Layer_1" xmlns="http://www.w3.org/2000/svg" viewBox="0 0 216 187.86"><defs><style>.cls-1{fill:none;stroke:#a6bc00;stroke-miterlimit:10;stroke-width:5px;}</style></defs><path class="cls-1" d="m44.7,44.7c0-3.88,3.15-7.03,7.03-7.03s7.03,3.15,7.03,7.03v98.46c0,3.88-3.15,7.03-7.03,7.03s-7.03-3.15-7.03-7.03V44.7Z"/><path class="cls-1" d="m72.83,9.53c0-3.88,3.15-7.03,7.03-7.03s7.03,3.15,7.03,7.03v168.8c0,3.88-3.15,7.03-7.03,7.03s-7.03-3.15-7.03-7.03V9.53Z"/><path class="cls-1" d="m100.97,30.63c0-3.88,3.15-7.03,7.03-7.03s7.03,3.15,7.03,7.03v126.6c0,3.88-3.15,7.03-7.03,7.03s-7.03-3.15-7.03-7.03V30.63Z"/><path class="cls-1" d="m129.1,51.73c0-3.88,3.15-7.03,7.03-7.03s7.03,3.15,7.03,7.03v84.4c0,3.88-3.15,7.03-7.03,7.03s-7.03-3.15-7.03-7.03V51.73Z"/><path class="cls-1" d="m157.23,44.7c0-3.88,3.15-7.03,7.03-7.03s7.03,3.15,7.03,7.03v98.46c0,3.88-3.15,7.03-7.03,7.03s-7.03-3.15-7.03-7.03V44.7Z"/><path class="cls-1" d="m9.53,100.96c-3.88,0-7.03-3.15-7.03-7.03s3.15-7.03,7.03-7.03h17.58c3.88,0,7.03,3.15,7.03,7.03s-3.15,7.03-7.03,7.03H9.53Z"/><path class="cls-1" d="m188.88,100.96c-3.88,0-7.03-3.15-7.03-7.03s3.15-7.03,7.03-7.03h17.58c3.88,0,7.03,3.15,7.03,7.03s-3.15,7.03-7.03,7.03h-17.58Z"/></svg>