<?xml version="1.0" encoding="utf-8"?>
<!-- Generator: Adobe Illustrator 27.5.0, SVG Export Plug-In . SVG Version: 6.00 Build 0)  -->
<svg version="1.1" id="Outlines" xmlns="http://www.w3.org/2000/svg" xmlns:xlink="http://www.w3.org/1999/xlink" x="0px" y="0px"
	 viewBox="0 0 64 64" style="enable-background:new 0 0 64 64;" xml:space="preserve">
<style type="text/css">
	.st0{fill:#A6BC00;}
</style>
<g>
	<path class="st0" d="M8,20h10c0.6,0,1-0.4,1-1V7c0-0.6-0.4-1-1-1H8C7.4,6,7,6.4,7,7v12C7,19.6,7.4,20,8,20z M9,8h8v10H9V8z"/>
	<path class="st0" d="M14,10h-2c-0.6,0-1,0.4-1,1s0.4,1,1,1h2c0.6,0,1-0.4,1-1S14.6,10,14,10z"/>
	<path class="st0" d="M14,14h-2c-0.6,0-1,0.4-1,1s0.4,1,1,1h2c0.6,0,1-0.4,1-1S14.6,14,14,14z"/>
	<path class="st0" d="M61,8c0.6,0,1-0.4,1-1V3c0-0.6-0.4-1-1-1H45c-0.6,0-1,0.4-1,1v9H32c-0.3,0-0.5,0.1-0.7,0.3S31,12.7,31,13v11
		H18c-0.6,0-1,0.4-1,1v16c0,0.6,0.4,1,1,1h13v9H18v-4c0-0.6-0.4-1-1-1H3c-0.6,0-1,0.4-1,1v14c0,0.6,0.4,1,1,1h3c0.6,0,1-0.4,1-1
		s-0.4-1-1-1H4V48h12v12h-6c-0.6,0-1,0.4-1,1s0.4,1,1,1h7c0.6,0,1-0.4,1-1v-8h14c0.6,0,1-0.4,1-1V42h13c0.6,0,1-0.4,1-1V25
		c0-0.6-0.4-1-1-1h-3c-0.6,0-1,0.4-1,1s0.4,1,1,1h2v6H19v-6h20c0.6,0,1-0.4,1-1s-0.4-1-1-1h-6V14h11v2c0,0,0,0,0,0
		c0,0.1,0,0.2,0.1,0.3c0,0,0,0.1,0,0.1c0,0,0,0,0,0.1c0,0.1,0.1,0.2,0.2,0.2c0,0,0,0,0,0c0.1,0.1,0.2,0.1,0.3,0.2c0,0,0.1,0,0.1,0
		c0.1,0,0.2,0.1,0.3,0.1h16c0.6,0,1-0.4,1-1v-5c0-0.6-0.4-1-1-1s-1,0.4-1,1v3.4l-3.2-4C56.6,10.1,56.3,10,56,10s-0.6,0.1-0.8,0.4
		l-1.4,1.8l-2.9-4.7c-0.4-0.6-1.3-0.6-1.7,0l-3.2,5V4h14v3C60,7.6,60.4,8,61,8z M45,34v6H19v-6H45z M56,12.6l1.9,2.4h-2.4l-0.6-1
		L56,12.6z M50,9.9l3.2,5.1h-6.4L50,9.9z"/>
	<circle class="st0" cx="56" cy="7" r="1"/>
	<path class="st0" d="M14,54c0-0.4-0.2-0.7-0.6-0.9l-6-3c-0.3-0.2-0.7-0.1-1,0C6.2,50.3,6,50.7,6,51v6c0,0.3,0.2,0.7,0.5,0.9
		C6.6,58,6.8,58,7,58c0.2,0,0.3,0,0.4-0.1l6-3C13.8,54.7,14,54.4,14,54z M8,55.4v-2.8l2.8,1.4L8,55.4z"/>
	<path class="st0" d="M55.8,42l-8,2c-0.4,0.1-0.8,0.5-0.8,1v8.2c-0.3-0.1-0.6-0.2-1-0.2c-1.7,0-3,1.3-3,3s1.3,3,3,3s3-1.3,3-3v-6.2
		l6-1.5v2.9c-0.3-0.1-0.6-0.2-1-0.2c-1.7,0-3,1.3-3,3s1.3,3,3,3s3-1.3,3-3V43c0-0.3-0.1-0.6-0.4-0.8C56.4,42,56.1,42,55.8,42z
		 M46,57c-0.6,0-1-0.4-1-1s0.4-1,1-1s1,0.4,1,1S46.6,57,46,57z M49,45.8l6-1.5v1.9l-6,1.5V45.8z M54,55c-0.6,0-1-0.4-1-1s0.4-1,1-1
		s1,0.4,1,1S54.6,55,54,55z"/>
	<path class="st0" d="M40.3,57.6C37.6,58.5,34.8,59,32,59c-3.6,0-7.1-0.7-10.4-2.1c-0.5-0.2-1.1,0-1.3,0.5c-0.2,0.5,0,1.1,0.5,1.3
		C24.4,60.2,28.1,61,32,61c3,0,6-0.5,8.9-1.5c0.5-0.2,0.8-0.7,0.6-1.3C41.4,57.8,40.8,57.5,40.3,57.6z"/>
	<path class="st0" d="M6.8,43.8c0.1,0,0.2,0,0.4-0.1c0.5-0.2,0.8-0.8,0.6-1.3C6.6,39.4,6,36.2,6,33c0-3.3,0.6-6.6,1.8-9.6
		c0.2-0.5,0-1.1-0.6-1.3c-0.5-0.2-1.1,0-1.3,0.6C4.7,25.9,4,29.4,4,33c0,3.5,0.6,6.9,1.9,10.1C6.1,43.5,6.4,43.8,6.8,43.8z"/>
	<path class="st0" d="M22,8.9c0.1,0,0.2,0,0.4-0.1C28.3,6.5,35,6.4,40.9,8.6C41.4,8.8,42,8.5,42.2,8c0.2-0.5-0.1-1.1-0.6-1.3
		C35.2,4.4,28,4.5,21.6,7c-0.5,0.2-0.8,0.8-0.6,1.3C21.2,8.7,21.6,8.9,22,8.9z"/>
	<path class="st0" d="M55.6,19.9c-0.5,0.2-0.7,0.9-0.4,1.3C57.1,24.9,58,28.9,58,33c0,1.7-0.2,3.4-0.5,5.1c-0.1,0.5,0.2,1.1,0.8,1.2
		c0.1,0,0.1,0,0.2,0c0.5,0,0.9-0.3,1-0.8c0.4-1.8,0.5-3.6,0.5-5.5c0-4.5-1-8.7-3-12.7C56.7,19.8,56.1,19.6,55.6,19.9z"/>
	<circle class="st0" cx="33" cy="37" r="1"/>
	<circle class="st0" cx="37" cy="37" r="1"/>
	<circle class="st0" cx="41" cy="37" r="1"/>
	<path class="st0" d="M22,38h6c0.6,0,1-0.4,1-1s-0.4-1-1-1h-6c-0.6,0-1,0.4-1,1S21.4,38,22,38z"/>
	<circle class="st0" cx="33" cy="29" r="1"/>
	<circle class="st0" cx="37" cy="29" r="1"/>
	<circle class="st0" cx="41" cy="29" r="1"/>
	<path class="st0" d="M22,28c-0.6,0-1,0.4-1,1s0.4,1,1,1h6c0.6,0,1-0.4,1-1s-0.4-1-1-1H22z"/>
</g>
</svg>
