<?xml version="1.0" encoding="utf-8"?>
<!-- Generator: Adobe Illustrator 27.5.0, SVG Export Plug-In . SVG Version: 6.00 Build 0)  -->
<svg version="1.1" id="Outline" xmlns="http://www.w3.org/2000/svg" xmlns:xlink="http://www.w3.org/1999/xlink" x="0px" y="0px"
	 viewBox="0 0 64 64" style="enable-background:new 0 0 64 64;" xml:space="preserve">
<style type="text/css">
	.st0{fill:#A6BC00;}
</style>
<g>
	<path class="st0" d="M61.5,15.2c-0.5-0.3-1.1-0.2-1.4,0.3l-21.4,33c-3-0.4-6.5-0.5-9.6-0.4c-0.6,0-1,0.5-0.9,1c0,0.6,0.5,1,1,0.9
		c0.9,0,1.8-0.1,2.7-0.1c2.1,0,3.9,0.1,5.6,0.3l-1.2,1.8c-2.9,0.5-5.9,0.5-8.8,0L3.8,15.5c-0.3-0.5-0.9-0.6-1.4-0.3
		c-0.5,0.3-0.6,0.9-0.3,1.4l20.9,32.2C19.6,49.4,16,50.7,16,53v4c0,1.4,1.3,2.5,3.8,3.4c0.1,0,0.2,0.1,0.3,0.1
		c0.4,0,0.8-0.3,0.9-0.7c0.2-0.5-0.1-1.1-0.6-1.3c-2-0.7-2.4-1.3-2.4-1.5v-1.4c2.9,1.6,8.6,2.4,14,2.4s11.1-0.8,14-2.4V57
		c0,0.9-4.8,3-14,3c-2.8,0-5.5-0.2-7.9-0.6c-0.5-0.1-1.1,0.3-1.2,0.8c-0.1,0.5,0.3,1.1,0.8,1.2c2.5,0.4,5.3,0.6,8.2,0.6
		c7.7,0,16-1.6,16-5v-4c0-2.1-3-3.5-7.1-4.2l20.9-32.2C62.1,16.1,62,15.5,61.5,15.2z M46,53c0,0.9-4.8,3-14,3s-14-2.1-14-3
		c0-0.4,1.5-1.6,6.2-2.4l1.9,3c0.1,0.2,0.4,0.4,0.6,0.4c1.7,0.3,3.5,0.5,5.2,0.5s3.5-0.2,5.2-0.5c0.3-0.1,0.5-0.2,0.6-0.4l1.9-3
		C43.9,51.3,46,52.4,46,53z"/>
	<path class="st0" d="M45.7,24.8c0.2,0.1,0.4,0.2,0.5,0.2c0.3,0,0.6-0.2,0.8-0.5l6.7-10.4c0.3-0.5,0.2-1.1-0.3-1.4
		c-0.5-0.3-1.1-0.2-1.4,0.3l-6.7,10.4C45.1,23.9,45.3,24.5,45.7,24.8z"/>
	<path class="st0" d="M16.9,24.5c0.2,0.3,0.5,0.5,0.8,0.5c0.2,0,0.4-0.1,0.5-0.2c0.5-0.3,0.6-0.9,0.3-1.4l-6.7-10.4
		c-0.3-0.5-0.9-0.6-1.4-0.3c-0.5,0.3-0.6,0.9-0.3,1.4L16.9,24.5z"/>
	<path class="st0" d="M45.6,16.9C45.7,17,45.9,17,46,17c0.4,0,0.8-0.2,0.9-0.6l3-7c0.2-0.5,0-1.1-0.5-1.3c-0.5-0.2-1.1,0-1.3,0.5
		l-3,7C44.9,16.1,45.1,16.7,45.6,16.9z"/>
	<path class="st0" d="M17.1,16.4c0.2,0.4,0.5,0.6,0.9,0.6c0.1,0,0.3,0,0.4-0.1c0.5-0.2,0.7-0.8,0.5-1.3l-3-7
		c-0.2-0.5-0.8-0.7-1.3-0.5c-0.5,0.2-0.7,0.8-0.5,1.3L17.1,16.4z"/>
	<path class="st0" d="M15.4,29.5c0.2,0.3,0.5,0.5,0.8,0.5c0.2,0,0.4-0.1,0.5-0.2c0.5-0.3,0.6-0.9,0.3-1.4l-5.8-9
		c-0.3-0.5-0.9-0.6-1.4-0.3c-0.5,0.3-0.6,0.9-0.3,1.4L15.4,29.5z"/>
	<path class="st0" d="M52.8,19.5l-5.8,9c-0.3,0.5-0.2,1.1,0.3,1.4c0.2,0.1,0.4,0.2,0.5,0.2c0.3,0,0.6-0.2,0.8-0.5l5.8-9
		c0.3-0.5,0.2-1.1-0.3-1.4C53.7,18.9,53.1,19,52.8,19.5z"/>
	<path class="st0" d="M38.5,41.5l-1.9,3c-0.3,0.5-0.2,1.1,0.3,1.4c0.2,0.1,0.4,0.2,0.5,0.2c0.3,0,0.6-0.2,0.8-0.5l1.9-3
		c0.3-0.5,0.2-1.1-0.3-1.4C39.4,40.9,38.8,41,38.5,41.5z"/>
	<path class="st0" d="M24.1,41.2c-0.5,0.3-0.6,0.9-0.3,1.4l1.9,3c0.2,0.3,0.5,0.5,0.8,0.5c0.2,0,0.4-0.1,0.5-0.2
		c0.5-0.3,0.6-0.9,0.3-1.4l-1.9-3C25.2,41,24.6,40.9,24.1,41.2z"/>
	<path class="st0" d="M57,16c0.3,0,0.6-0.2,0.8-0.4l4-6c0.3-0.5,0.2-1.1-0.3-1.4c-0.5-0.3-1.1-0.2-1.4,0.3l-4,6
		c-0.3,0.5-0.2,1.1,0.3,1.4C56.6,15.9,56.8,16,57,16z"/>
	<path class="st0" d="M6.2,15.6C6.4,15.8,6.7,16,7,16c0.2,0,0.4-0.1,0.6-0.2c0.5-0.3,0.6-0.9,0.3-1.4l-4-6C3.5,8,2.9,7.9,2.4,8.2
		C2,8.5,1.9,9.1,2.2,9.6L6.2,15.6z"/>
	<path class="st0" d="M19.5,34c0,0.3,0.1,0.6,0.3,0.8l11.5,10c0.2,0.2,0.4,0.2,0.7,0.2c0.2,0,0.5-0.1,0.7-0.2l4.9-4.2
		c0.4-0.4,0.5-1,0.1-1.4c-0.4-0.4-1-0.5-1.4-0.1L32,42.7l-10.5-9.1c0.2-2.9,2.6-5.3,5.5-5.5v2c0,0.4,0.2,0.7,0.6,0.9l4,2
		C31.7,33,31.8,33,32,33s0.3,0,0.4-0.1l4-2c0.3-0.2,0.6-0.5,0.6-0.9v-2c2.9,0.2,5.3,2.6,5.5,5.5l-3.2,2.8c-0.4,0.4-0.5,1-0.1,1.4
		c0.2,0.2,0.5,0.3,0.8,0.3c0.2,0,0.5-0.1,0.7-0.2l3.6-3.1c0.2-0.2,0.3-0.5,0.3-0.8c0-4.1-3-7.4-7-7.9c1.9-1.5,3.2-3.7,3.4-6.2
		c1.2-0.4,2-1.5,2-2.8v-4c0-1.3-0.9-2.4-2-2.8C40.5,5.6,36.7,2,32,2h-8c-0.3,0-0.6,0.1-0.8,0.4c-1.8,2.3-2,5.5-0.7,8
		C21.6,10.9,21,11.9,21,13v4c0,1.3,0.9,2.4,2,2.8c0.2,2.5,1.5,4.8,3.4,6.2C22.5,26.6,19.5,29.9,19.5,34z M32,30.9l-3-1.5v-1.9
		c0.9,0.3,1.9,0.5,3,0.5c1.1,0,2.1-0.2,3-0.5v1.9L32,30.9z M41,17c0,0.6-0.4,1-1,1h-0.6l-6-6H40c0.6,0,1,0.4,1,1V17z M24.5,4H32
		c3.5,0,6.4,2.6,6.9,6H29c-0.6,0-1,0.4-1,1s0.4,1,1,1h1.6l6,6h-1.8c-0.3,0-0.5-0.1-0.7-0.3c-1.2-1.2-3.1-1.2-4.2,0
		c-0.1,0.1-0.3,0.2-0.5,0.3l-5.8-5.8c0.1-0.1,0.3-0.1,0.5-0.1h1c0.6,0,1-0.4,1-1s-0.4-1-1-1h-0.5C23.4,8.2,23.4,5.8,24.5,4z M24,18
		c-0.6,0-1-0.4-1-1v-2.6l3.6,3.6H24z M25.1,20h4.1c0.8,0,1.6-0.3,2.1-0.9c0.4-0.4,1-0.4,1.4,0c0.6,0.6,1.3,0.9,2.1,0.9h4.1
		c-0.5,3.4-3.4,6-6.9,6S25.6,23.4,25.1,20z"/>
	<path class="st0" d="M29.6,22.9c0.8,0.4,1.6,0.6,2.4,0.6s1.7-0.2,2.4-0.6c0.5-0.2,0.7-0.8,0.4-1.3s-0.8-0.7-1.3-0.4
		c-1,0.5-2.1,0.5-3.1,0c-0.5-0.2-1.1,0-1.3,0.4C28.9,22,29.1,22.6,29.6,22.9z"/>
	<circle class="st0" cx="32" cy="36" r="1"/>
	<circle class="st0" cx="32" cy="40" r="1"/>
</g>
</svg>
