<?xml version="1.0" encoding="utf-8"?>
<!-- Generator: Adobe Illustrator 27.5.0, SVG Export Plug-In . SVG Version: 6.00 Build 0)  -->
<svg version="1.1" id="Outline" xmlns="http://www.w3.org/2000/svg" xmlns:xlink="http://www.w3.org/1999/xlink" x="0px" y="0px"
	 viewBox="0 0 64 64" style="enable-background:new 0 0 64 64;" xml:space="preserve">
<style type="text/css">
	.st0{fill:#A6BC00;}
</style>
<g>
	<path class="st0" d="M58.4,10.2l1.4-1.4C60.6,8.1,61,7.1,61,6s-0.4-2.1-1.2-2.8c-1.5-1.5-4.1-1.5-5.7,0L36.7,20.7
		C35.5,20.2,34.3,20,33,20s-2.6,0.2-3.8,0.7v-4.2c0-0.6-0.4-1-1-1h-18c-0.6,0-1,0.4-1,1v18c0,0.6,0.4,1,1,1h9.4c0.6,0,1-0.4,1-1
		s-0.4-1-1-1h-8.4v-16h16v4.2C24.1,23.6,22,27,22,31c0,4.8,3.2,9,7.6,10.5l-2.5,5.1c-0.2,0.3-0.1,0.7,0,1S27.7,48,28,48h10
		c0.6,0,1-0.4,1-1s-0.4-1-1-1h-8.4L37,31.2L44.4,46H42c-0.6,0-1,0.4-1,1s0.4,1,1,1h4c0.3,0,0.7-0.2,0.9-0.5s0.2-0.7,0-1L42.2,37
		c1.2-1.8,1.8-3.9,1.8-6.1c0-1.8-0.5-3.5-1.3-5.1l5.2-5.2c0.4-0.4,0.4-1,0-1.4s-1-0.4-1.4,0l-5.1,5.1l-2.8-2.8L52.8,7.4l2.8,2.8
		l-6.3,6.3c-0.4,0.4-0.4,1,0,1.4s1,0.4,1.4,0l5.9-5.9H57c1.7,0,3,1.3,3,3v32c0,1.7-1.3,3-3,3H7c-1.7,0-3-1.3-3-3v-6c0-0.6-0.4-1-1-1
		s-1,0.4-1,1v6c0,2.8,2.2,5,5,5h12v4h-6.5c-2.8,0-5,2.2-5,5c0,0.6,0.4,1,1,1H32c0.6,0,1-0.4,1-1s-0.4-1-1-1H9.7c0.4-1.2,1.5-2,2.8-2
		h39c1.3,0,2.4,0.8,2.8,2H36c-0.6,0-1,0.4-1,1s0.4,1,1,1h19.5c0.6,0,1-0.4,1-1c0-2.8-2.2-5-5-5H45v-4h12c2.8,0,5-2.2,5-5V15
		C62,12.7,60.5,10.8,58.4,10.2z M36.2,27.3c-0.2,0.1-0.3,0-0.4-0.1c-0.1-0.1-0.1-0.3-0.1-0.4l1.8-3.5l2.3,2.3L36.2,27.3z M24,31
		c0-5,4-9,9-9c0.9,0,1.8,0.1,2.7,0.4L34,25.9c-0.5,0.9-0.3,2,0.4,2.8c0.4,0.4,0.9,0.6,1.4,0.7l-5.2,10.4C26.7,38.6,24,35,24,31z
		 M37.9,28.7l3.1-1.6c0.6,1.2,0.9,2.5,0.9,3.9c0,1.4-0.3,2.7-0.9,3.9L37.9,28.7z M54.2,6l1.4-1.4c0.8-0.8,2.1-0.8,2.8,0
		C58.8,5,59,5.5,59,6s-0.2,1-0.6,1.4L57,8.8L54.2,6z M43,56H21v-4h22V56z"/>
	<path class="st0" d="M3,38c0.6,0,1-0.4,1-1V15c0-1.7,1.3-3,3-3h34.8c0.6,0,1-0.4,1-1s-0.4-1-1-1H7c-2.8,0-5,2.2-5,5v22
		C2,37.6,2.4,38,3,38z"/>
	<path class="st0" d="M52,28h4c0.6,0,1-0.4,1-1v-4c0-0.6-0.4-1-1-1h-4c-0.6,0-1,0.4-1,1v4C51,27.6,51.4,28,52,28z M53,24h2v2h-2V24z
		"/>
	<path class="st0" d="M51,35c0,0.6,0.4,1,1,1h4c0.6,0,1-0.4,1-1v-4c0-0.6-0.4-1-1-1h-4c-0.6,0-1,0.4-1,1V35z M53,32h2v2h-2V32z"/>
	<path class="st0" d="M51,43c0,0.6,0.4,1,1,1h4c0.6,0,1-0.4,1-1s-0.4-1-1-1h-3v-2h3c0.6,0,1-0.4,1-1s-0.4-1-1-1h-4c-0.6,0-1,0.4-1,1
		V43z"/>
	<path class="st0" d="M6,45c0,1.7,1.3,3,3,3s3-1.3,3-3s-1.3-3-3-3S6,43.3,6,45z M9,44c0.6,0,1,0.4,1,1s-0.4,1-1,1s-1-0.4-1-1
		S8.4,44,9,44z"/>
	<path class="st0" d="M20,45c0-1.7-1.3-3-3-3s-3,1.3-3,3s1.3,3,3,3S20,46.7,20,45z M16,45c0-0.6,0.4-1,1-1s1,0.4,1,1s-0.4,1-1,1
		S16,45.6,16,45z"/>
</g>
</svg>
