<?xml version="1.0" encoding="utf-8"?>
<!-- Generator: Adobe Illustrator 27.5.0, SVG Export Plug-In . SVG Version: 6.00 Build 0)  -->
<svg version="1.1" id="Layer_1" xmlns="http://www.w3.org/2000/svg" xmlns:xlink="http://www.w3.org/1999/xlink" x="0px" y="0px"
	 viewBox="0 0 512 512" style="enable-background:new 0 0 512 512;" xml:space="preserve">
<style type="text/css">
	.st0{fill:#A6BC00;}
	.st1{display:none;fill:#A6BC00;}
	.st2{display:none;}
</style>
<g id="_x30_8_Groupchat">
	<g>
		<path class="st0" d="M24.3,127.2c0,3.3,2.7,6,6,6s6-2.7,6-6c0-25.3,20.6-45.9,46-45.9c25.3,0,45.9,20.6,45.9,45.9c0,3.3,2.7,6,6,6
			s6-2.7,6-6c0-24.1-14.8-44.8-35.8-53.5c8.8-6.7,14.6-17.2,14.6-29.1c0-20.2-16.5-36.7-36.7-36.7C62,7.9,45.5,24.4,45.5,44.6
			c0,11.9,5.8,22.4,14.7,29.1C39.1,82.4,24.3,103.1,24.3,127.2z M82.2,19.9C95.9,19.9,107,31,107,44.6S95.9,69.4,82.2,69.4
			c-13.7,0-24.8-11.1-24.8-24.7S68.6,19.9,82.2,19.9z"/>
		<path class="st0" d="M487.7,29c0-14.3-11.6-25.9-25.9-25.9H225.4c-14.3,0-25.9,11.6-25.9,25.9V39l-34.8,17.2
			c-5.5,2.7-8.9,8.2-8.9,14.3c0,6.1,3.4,11.6,8.9,14.3l34.8,17.2v5.1c0,14.3,11.6,25.9,25.9,25.9h236.4c14.3,0,25.9-11.6,25.9-25.9
			V29z M475.8,107.1c0,7.7-6.3,14-14,14H225.4c-7.7,0-14-6.3-14-14v-8.8c0-2.3-1.3-4.3-3.3-5.4l-38.1-18.9c-2-1-2.2-2.8-2.2-3.6
			c0-0.7,0.2-2.6,2.2-3.6l38.1-18.9c2-1,3.3-3.1,3.3-5.4V29c0-7.7,6.3-14,14-14h236.4c7.7,0,14,6.3,14,14V107.1z"/>
		<path class="st0" d="M435.4,43H251.8c-3.3,0-6,2.7-6,6s2.7,6,6,6h183.6c3.3,0,6-2.7,6-6S438.7,43,435.4,43z"/>
		<path class="st0" d="M379.2,81.2H251.8c-3.3,0-6,2.7-6,6c0,3.3,2.7,6,6,6h127.5c3.3,0,6-2.7,6-6C385.2,83.9,382.5,81.2,379.2,81.2
			z"/>
		<path class="st1" d="M451.9,261.6c8.9-6.7,14.7-17.2,14.7-29.1c0-20.2-16.5-36.7-36.8-36.7c-20.2,0-36.7,16.5-36.7,36.7
			c0,11.9,5.8,22.4,14.6,29.1c-21,8.7-35.8,29.4-35.8,53.5c0,3.3,2.7,6,6,6s6-2.7,6-6c0-25.3,20.6-45.9,45.9-45.9
			c25.4,0,46,20.6,46,45.9c0,3.3,2.7,6,6,6s6-2.7,6-6C487.7,291,472.9,270.3,451.9,261.6z M429.8,207.7c13.7,0,24.8,11.1,24.8,24.7
			c0,13.6-11.1,24.7-24.8,24.7c-13.6,0-24.7-11.1-24.7-24.7S416.1,207.7,429.8,207.7z"/>
		<path class="st0" d="M24.3,295c0,14.3,9.6,25.9,21.4,25.9h195c11.8,0,21.4-11.6,21.4-25.9V290l28.7-17.2c4.5-2.7,7.3-8.2,7.3-14.3
			c0-6.1-2.8-11.6-7.3-14.3L262,226.9v-10.1c0-14.3-9.6-25.9-21.4-25.9h-195c-11.8,0-21.4,11.6-21.4,25.9V295z M34.1,216.8
			c0-7.7,5.2-14,11.5-14h195c6.4,0,11.5,6.3,11.5,14v13.8c0,2.3,1.1,4.3,2.7,5.4l31.4,18.9c1.7,1,1.8,2.8,1.8,3.6
			c0,0.7-0.2,2.6-1.8,3.6l-31.4,18.9c-1.7,1-2.7,3.1-2.7,5.4v8.8c0,7.7-5.2,14-11.5,14h-195c-6.4,0-11.5-6.3-11.5-14V216.8z"/>
		<path class="st0" d="M66.1,242.8h156c2.8,0,5.1-2.7,5.1-6c0-3.3-2.3-6-5.1-6h-156c-2.8,0-5.1,2.7-5.1,6
			C61,240.1,63.3,242.8,66.1,242.8z"/>
		<path class="st0" d="M222.1,269.1H113.8c-2.8,0-5.1,2.7-5.1,6s2.3,6,5.1,6h108.3c2.8,0,5.1-2.7,5.1-6S224.9,269.1,222.1,269.1z"/>
		<path class="st0" d="M30.3,509c3.3,0,6-2.7,6-6c0-25.3,20.6-45.9,46-45.9c25.3,0,45.9,20.6,45.9,45.9c0,3.3,2.7,6,6,6s6-2.7,6-6
			c0-24.1-14.8-44.8-35.8-53.5c8.8-6.7,14.6-17.2,14.6-29.1c0-20.2-16.5-36.7-36.7-36.7c-20.3,0-36.8,16.5-36.8,36.7
			c0,11.9,5.8,22.4,14.7,29.1c-21,8.7-35.9,29.4-35.9,53.5C24.3,506.3,27,509,30.3,509z M82.2,395.6c13.6,0,24.7,11.1,24.7,24.7
			c0,13.6-11.1,24.7-24.7,24.7c-13.7,0-24.8-11.1-24.8-24.7C57.4,406.7,68.6,395.6,82.2,395.6z"/>
		<path class="st0" d="M225.4,508.8h236.4c14.3,0,25.9-11.6,25.9-25.9v-78.2c0-14.3-11.6-25.9-25.9-25.9H225.4
			c-14.3,0-25.9,11.6-25.9,25.9v10.1L164.6,432c-5.5,2.7-8.9,8.2-8.9,14.3c0,6.1,3.4,11.6,8.9,14.3l34.8,17.2v5.1
			C199.4,497.2,211.1,508.8,225.4,508.8z M169.9,449.9c-2-1-2.2-2.8-2.2-3.6c0-0.7,0.2-2.6,2.2-3.6l38.1-18.9c2-1,3.3-3.1,3.3-5.4
			v-13.8c0-7.7,6.3-14,14-14h236.4c7.7,0,14,6.3,14,14v78.2c0,7.7-6.3,14-14,14H225.4c-7.7,0-14-6.3-14-14v-8.8
			c0-2.3-1.3-4.3-3.3-5.4L169.9,449.9z"/>
		<path class="st0" d="M251.8,430.7h183.6c3.3,0,6-2.7,6-6s-2.7-6-6-6H251.8c-3.3,0-6,2.7-6,6C245.8,428,248.5,430.7,251.8,430.7z"
			/>
		<path class="st0" d="M251.8,468.9h127.5c3.3,0,6-2.7,6-6s-2.7-6-6-6H251.8c-3.3,0-6,2.7-6,6C245.8,466.2,248.5,468.9,251.8,468.9z
			"/>
	</g>
</g>
<g id="Layer_1_00000095335096255303800840000001218337622683431570_" class="st2">
</g>
<path class="st0" d="M483.9,281.4H474v-74.2c0-8.2-6.7-14.8-14.8-14.8H447c-2.7,0-4.9,2.2-4.9,4.9s2.2,4.9,4.9,4.9h12.1
	c2.7,0,4.9,2.2,4.9,4.9v74.2H345.4v-74.2c0-2.7,2.2-4.9,4.9-4.9h39.6c2.7,0,4.9-2.2,4.9-4.9s-2.2-4.9-4.9-4.9h-39.6
	c-8.2,0-14.8,6.7-14.8,14.8v74.2h-9.9c-2.7,0-4.9,2.2-4.9,4.9v14.8c0,10.9,8.9,19.8,19.8,19.8h128.6c10.9,0,19.8-8.9,19.8-19.8
	v-14.8C488.8,283.6,486.6,281.4,483.9,281.4z M479,301.2c0,5.5-4.4,9.9-9.9,9.9H340.4c-5.5,0-9.9-4.4-9.9-9.9v-9.9H479V301.2z"/>
<path class="st0" d="M365.2,241.8c-2.7,0-4.9,2.2-4.9,4.9v19.8c0,2.7,2.2,4.9,4.9,4.9h79.2c2.7,0,4.9-2.2,4.9-4.9v-19.8
	c0-2.7-2.2-4.9-4.9-4.9H365.2z M370.1,261.6v-9.9h9.9v9.9H370.1z M439.4,261.6h-49.5v-9.9h49.5V261.6z"/>
<path class="st0" d="M365.2,231.9h24.7c2.7,0,4.9-2.2,4.9-4.9s-2.2-4.9-4.9-4.9h-24.7c-2.7,0-4.9,2.2-4.9,4.9
	S362.4,231.9,365.2,231.9z"/>
<path class="st0" d="M444.3,231.9c2.7,0,4.9-2.2,4.9-4.9s-2.2-4.9-4.9-4.9h-19.8c-2.7,0-4.9,2.2-4.9,4.9s2.2,4.9,4.9,4.9H444.3z"/>
</svg>
